<?xml version="1.0" encoding="UTF-8"?>
<svg width="18px" height="18px" viewBox="0 0 18 18" version="1.1" xmlns="http://www.w3.org/2000/svg" xmlns:xlink="http://www.w3.org/1999/xlink">
    <title>ED2D0BB3-2E74-48B7-942F-43ED595403B2</title>
    <g id="Page-1" stroke="none" stroke-width="1" fill="none" fill-rule="evenodd" stroke-linecap="round" stroke-linejoin="round">
        <g id="Result" transform="translate(-271.000000, -249.000000)" stroke="#F5B014" stroke-width="2">
            <g id="list" transform="translate(15.000000, 156.000000)">
                <g id="currency-dollar" transform="translate(257.000000, 94.000000)">
                    <path d="M8,4.44444444 C6.5272,4.44444444 5.33333333,5.24038222 5.33333333,6.22222222 C5.33333333,7.20408889 6.5272,8 8,8 C9.4728,8 10.6666667,8.79591111 10.6666667,9.77777778 C10.6666667,10.7596444 9.4728,11.5555556 8,11.5555556 M8,4.44444444 C8.98702222,4.44444444 9.8488,4.80195556 10.3099556,5.33333333 M8,4.44444444 L8,3.55555556 M8,4.44444444 L8,11.5555556 M8,11.5555556 L8,12.4444444 M8,11.5555556 C7.01297778,11.5555556 6.15118222,11.1980444 5.69010667,10.6666667 M16,8 C16,12.4183111 12.4183111,16 8,16 C3.58172444,16 0,12.4183111 0,8 C0,3.58172444 3.58172444,0 8,0 C12.4183111,0 16,3.58172444 16,8 Z" id="Shape"></path>
                </g>
            </g>
        </g>
    </g>
</svg>